<svg width="19" height="24" viewBox="0 0 19 24" fill="none" xmlns="http://www.w3.org/2000/svg">
<path d="M18.2701 18.1771C17.9419 18.9566 17.5316 19.6677 17.0803 20.3241C16.4513 21.213 15.9453 21.842 15.5487 22.1839C14.9333 22.7446 14.2769 23.0318 13.5795 23.0591C13.0735 23.0591 12.4718 22.9087 11.7607 22.6215C11.0496 22.3343 10.3932 22.1839 9.80513 22.1839C9.17607 22.1839 8.50598 22.3343 7.79487 22.6215C7.07009 22.9087 6.49573 23.0591 6.05812 23.0865C5.38803 23.1138 4.71795 22.813 4.04786 22.1976C3.62393 21.8283 3.0906 21.1856 2.44786 20.2831C1.7641 19.3121 1.18974 18.1907 0.752137 16.9053C0.232479 15.4967 0 14.1566 0 12.8574C0 11.3668 0.31453 10.095 0.957265 9.01467C1.46325 8.15314 2.13333 7.46938 2.9812 6.97707C3.82906 6.48476 4.73162 6.22493 5.70256 6.21126C6.2359 6.21126 6.93333 6.37536 7.80855 6.70356C8.68376 7.03177 9.23077 7.19587 9.47692 7.19587C9.6547 7.19587 10.2838 7.00442 11.3368 6.62151C12.335 6.26596 13.1692 6.11553 13.853 6.17023C15.7128 6.32066 17.1214 7.05912 18.0513 8.38561C16.3829 9.39758 15.5624 10.8061 15.5761 12.6249C15.5897 14.0335 16.1094 15.2095 17.1077 16.1531C17.559 16.5907 18.0786 16.9189 18.6393 17.1651C18.5436 17.507 18.4068 17.8489 18.2701 18.1771ZM13.9897 1.34288C13.9897 2.45057 13.5795 3.48989 12.7726 4.44715C11.8154 5.5822 10.6256 6.23861 9.35385 6.14288C9.34017 6.00613 9.3265 5.86938 9.3265 5.71895C9.3265 4.65228 9.79145 3.51724 10.612 2.58732C11.0222 2.12237 11.5419 1.72579 12.1709 1.41126C12.8 1.09673 13.4017 0.932624 13.9624 0.905273C13.9897 1.0557 13.9897 1.20613 13.9897 1.34288Z" fill="#202020"/>
</svg>
