<svg width="32" height="32" viewBox="0 0 32 32" fill="none" xmlns="http://www.w3.org/2000/svg">
<path fill-rule="evenodd" clip-rule="evenodd" d="M16.0564 0L0.00821455 7.83205e-07C0.00469232 7.83205e-07 0.00183786 0.00286563 0.00183786 0.00639901V1.09961C0.00183786 1.10092 0.00183105 1.10223 0.00183105 1.10354L0.00183239 30.8966C0.00183239 31.5059 0.494146 32 1.10145 32H16.0564C24.8623 31.9999 32.0008 24.8365 32.0008 15.9999C32.0008 7.16341 24.8623 -3.35659e-07 16.0564 0Z" fill="#A5EB30"/>
<path fill-rule="evenodd" clip-rule="evenodd" d="M0.0556641 14.2143C1.8517 15.6063 4.12655 16.4018 6.57501 16.3163L15.9726 15.9882L13.2774 7.55546C13.0832 1.9946 6.50584 1.255 0.944999 1.44919L0.0556641 0.711182V14.2143Z" fill="#34863D"/>
<path d="M7.72414 3.35661e-07C12.2948 5.59435e-07 16 3.70524 16 8.27588V16H8.27586C3.70523 16 -2.23774e-07 12.2948 0 7.72416L3.3566e-07 0L7.72414 3.35661e-07Z" fill="#58CC27"/>
</svg>
