<svg width="30" height="30" viewBox="0 0 30 30" fill="none" xmlns="http://www.w3.org/2000/svg">
<rect x="0.25" y="0.25" width="29.5" height="29.5" rx="7.75" fill="white" stroke="#EEEEEE" stroke-width="0.5"/>
<path fill-rule="evenodd" clip-rule="evenodd" d="M15.4528 8.14282L8.575 8.14282C8.57349 8.14282 8.57227 8.14405 8.57227 8.14556V8.61408C8.57227 8.61464 8.57227 8.61521 8.57227 8.61577L8.57227 21.3842C8.57227 21.6454 8.78326 21.8571 9.04353 21.8571H15.4528C19.2267 21.8571 22.2861 18.787 22.2861 14.9999C22.2861 11.2129 19.2267 8.14282 15.4528 8.14282Z" fill="#A5EB30"/>
<path d="M11.8816 8.14282C13.8405 8.14282 15.4284 9.73078 15.4284 11.6896V15H12.1181C10.1592 15 8.57129 13.412 8.57129 11.4532L8.57129 8.14282L11.8816 8.14282Z" fill="#58CC27"/>
</svg>
