<svg width="18" height="16" viewBox="0 0 18 16" fill="none" xmlns="http://www.w3.org/2000/svg">
<path d="M9.9411 0.497486L11.8514 4.33773C11.9929 4.61702 12.2405 4.79157 12.5235 4.82648L16.8039 5.45489C17.5468 5.55962 17.8652 6.46731 17.2992 6.99098L14.2215 9.95844C14.0093 10.1679 13.9031 10.4472 13.9739 10.7614L14.7168 14.9508C14.8583 15.6839 14.0446 16.2425 13.4079 15.8934L9.58735 13.9034C9.30434 13.7638 8.98597 13.7638 8.73834 13.9034L4.88242 15.8934C4.21029 16.2425 3.43203 15.6839 3.57353 14.9508L4.31641 10.7614C4.35179 10.4821 4.28104 10.1679 4.06878 9.95844L0.920374 6.99098C0.389743 6.46731 0.672746 5.55962 1.41563 5.45489L5.69605 4.82648C5.97906 4.79157 6.26206 4.61702 6.36819 4.33773L8.27846 0.497486C8.63221 -0.165829 9.58735 -0.165829 9.9411 0.497486Z" fill="#E8E8E8"/>
</svg>
