<?xml version="1.0" encoding="utf-8"?>
<!-- Generator: Adobe Illustrator 17.1.0, SVG Export Plug-In . SVG Version: 6.00 Build 0)  -->
<!DOCTYPE svg PUBLIC "-//W3C//DTD SVG 1.1//EN" "http://www.w3.org/Graphics/SVG/1.1/DTD/svg11.dtd">
<svg version="1.1" id="Layer_1" xmlns="http://www.w3.org/2000/svg" xmlns:xlink="http://www.w3.org/1999/xlink" x="0px" y="0px"
	 viewBox="0 0 22 23" enable-background="new 0 0 22 23" xml:space="preserve">
<path enable-background="new    " d="M19,0.9H3c-1.6,0-3,1.3-3,3v16.1c0,1.6,1.3,3,3,3h7.9l0-7.9h-2c-0.3,0-0.5-0.2-0.5-0.5l0-2.5
	c0-0.3,0.2-0.5,0.5-0.5h2V9.1c0-2.8,1.7-4.4,4.3-4.4h2.1c0.3,0,0.5,0.2,0.5,0.5v2.1c0,0.3-0.2,0.5-0.5,0.5H16
	c-1.4,0-1.6,0.7-1.6,1.6v2.1h3c0.3,0,0.5,0.2,0.5,0.5l-0.3,2.5c0,0.2-0.2,0.4-0.5,0.4h-2.7v7.9H19c1.6,0,3-1.3,3-3V3.9
	C22,2.2,20.7,0.9,19,0.9z"/>
</svg>
