<svg width="134" height="49" viewBox="0 0 134 49" fill="none" xmlns="http://www.w3.org/2000/svg">
<g opacity="0.3">
<path opacity="0.9" d="M24.2617 0.0947266C17.8271 0.0947268 11.656 2.65086 7.10608 7.20081C2.55613 11.7507 2.04533e-07 17.9218 0 24.3564C-2.04533e-07 30.791 2.55613 36.962 7.10607 41.512C11.656 46.0619 17.8271 48.618 24.2617 48.618V0.0947266Z" fill="black"/>
<path opacity="0.75" d="M24.2619 48.6181C27.448 48.6181 30.6029 47.9906 33.5464 46.7713C36.49 45.552 39.1646 43.7649 41.4175 41.512C43.6704 39.2591 45.4575 36.5845 46.6767 33.641C47.896 30.6974 48.5235 27.5425 48.5235 24.3564L24.2619 24.3564L24.2619 48.6181Z" fill="black"/>
<path opacity="0.6" fill-rule="evenodd" clip-rule="evenodd" d="M53.1979 12.0805C54.7719 8.28057 55.582 4.20779 55.582 0.0947266H24.2615V31.4152C24.2617 31.4152 24.2619 31.4152 24.2621 31.4152L24.2621 24.3565L44.0691 24.3565C44.8824 23.6925 45.6633 22.9868 46.4084 22.2416C49.3168 19.3333 51.6239 15.8805 53.1979 12.0805Z" fill="black"/>
<path d="M77.2958 14.9164H80.6972V20.1988C79.1951 21.846 77.1152 22.6696 74.4576 22.6696C72.2334 22.6696 70.363 21.9454 68.8464 20.497C67.3443 19.0486 66.5932 17.2239 66.5932 15.0228C66.5932 12.8076 67.3587 10.9616 68.8897 9.48482C70.4352 8.00801 72.2911 7.2696 74.4576 7.2696C76.6386 7.2696 78.5307 7.97251 80.1339 9.37831L78.379 11.8704C77.7002 11.2882 77.0719 10.8906 76.4942 10.6776C75.9309 10.4504 75.317 10.3368 74.6526 10.3368C73.3672 10.3368 72.2839 10.7699 71.4029 11.6361C70.5218 12.4881 70.0813 13.617 70.0813 15.0228C70.0813 16.4287 70.5002 17.5576 71.3379 18.4096C72.19 19.2474 73.2011 19.6663 74.371 19.6663C75.5409 19.6663 76.5158 19.4462 77.2958 19.006V14.9164Z" fill="black"/>
<path d="M93.4795 20.8378C92.1652 22.059 90.6197 22.6696 88.8432 22.6696C87.0811 22.6696 85.6223 22.1371 84.4669 21.0721C83.3114 19.9929 82.7337 18.5516 82.7337 16.7482C82.7337 14.9447 83.3186 13.5105 84.4885 12.4455C85.6729 11.3805 87.0667 10.848 88.6699 10.848C90.2731 10.848 91.6308 11.3237 92.7429 12.2751C93.8695 13.2265 94.4328 14.5329 94.4328 16.1944V17.8984H85.9401C86.0412 18.5232 86.3734 19.0344 86.9367 19.432C87.5 19.8296 88.1355 20.0284 88.8432 20.0284C89.9842 20.0284 90.9231 19.6521 91.6597 18.8995L93.4795 20.8378ZM91.1397 15.6193C91.0675 14.9376 90.8075 14.4122 90.3598 14.043C89.912 13.6738 89.3632 13.4892 88.7132 13.4892C88.0777 13.4892 87.4928 13.6809 86.9584 14.0643C86.424 14.4477 86.1134 14.9661 86.0268 15.6193H91.1397Z" fill="black"/>
<path d="M100.527 13.3401V18.4735C100.527 18.9137 100.643 19.2616 100.874 19.5172C101.105 19.7586 101.379 19.8793 101.697 19.8793C102.304 19.8793 102.817 19.6095 103.235 19.0699L104.449 21.3064C103.438 22.2152 102.369 22.6696 101.242 22.6696C100.13 22.6696 99.184 22.3075 98.4041 21.5833C97.6386 20.8591 97.2558 19.8722 97.2558 18.6226V13.3401H95.8909V11.0397H97.2558V7.61041H100.527V11.0397H103.344V13.3401H100.527Z" fill="black"/>
<path d="M116.915 7.61041V10.5285H109.896V13.7448H116.569V16.663H109.896V22.4992H106.516V7.61041H116.915Z" fill="black"/>
<path d="M122.706 22.4992H119.457V11.0397H122.706V22.4992ZM119.717 9.59132C119.356 9.22212 119.175 8.77481 119.175 8.24941C119.175 7.72401 119.356 7.28381 119.717 6.9288C120.092 6.5596 120.547 6.375 121.082 6.375C121.616 6.375 122.064 6.5596 122.425 6.9288C122.8 7.28381 122.988 7.72401 122.988 8.24941C122.988 8.77481 122.8 9.22212 122.425 9.59132C122.064 9.94632 121.616 10.1238 121.082 10.1238C120.547 10.1238 120.092 9.94632 119.717 9.59132Z" fill="black"/>
<path d="M129.661 13.3401V18.4735C129.661 18.9137 129.776 19.2616 130.007 19.5172C130.238 19.7586 130.513 19.8793 130.831 19.8793C131.437 19.8793 131.95 19.6095 132.369 19.0699L133.582 21.3064C132.571 22.2152 131.502 22.6696 130.376 22.6696C129.264 22.6696 128.318 22.3075 127.538 21.5833C126.772 20.8591 126.389 19.8722 126.389 18.6226V13.3401H125.024V11.0397H126.389V7.61041H129.661V11.0397H132.477V13.3401H129.661Z" fill="black"/>
<path d="M70.3268 29.9119C71.4969 29.9119 72.3904 30.2024 73.0073 30.7836C73.6349 31.3647 73.9487 32.2311 73.9487 33.3826V38.5484H72.4967V37.4184C72.2415 37.8166 71.8745 38.1233 71.3958 38.3386C70.9278 38.543 70.3694 38.6453 69.7205 38.6453C68.7738 38.6453 68.0133 38.4139 67.4389 37.9511C66.8751 37.4884 66.5932 36.8803 66.5932 36.127C66.5932 35.3736 66.8645 34.7709 67.407 34.3189C67.9495 33.8562 68.811 33.6248 69.9917 33.6248H72.417V33.3181C72.417 32.6508 72.2255 32.1396 71.8426 31.7845C71.4596 31.4293 70.8959 31.2517 70.1513 31.2517C69.6514 31.2517 69.1621 31.3378 68.6834 31.51C68.2047 31.6715 67.8005 31.8921 67.4708 32.1719L66.8326 31.0096C67.2687 30.6544 67.7899 30.3854 68.3962 30.2024C69.0025 30.0087 69.646 29.9119 70.3268 29.9119ZM69.9758 37.4507C70.5608 37.4507 71.0661 37.3216 71.4916 37.0633C71.917 36.7942 72.2255 36.4175 72.417 35.9332V34.7387H70.0556C68.7579 34.7387 68.109 35.1799 68.109 36.0624C68.109 36.4929 68.2739 36.8319 68.6036 37.0794C68.9334 37.3269 69.3908 37.4507 69.9758 37.4507Z" fill="black"/>
<path d="M81.2667 29.9119C82.0858 29.9119 82.8197 30.0948 83.4686 30.4607C84.1174 30.8266 84.6227 31.3378 84.9843 31.9943C85.3566 32.6508 85.5428 33.4095 85.5428 34.2705C85.5428 35.1315 85.3566 35.8956 84.9843 36.5628C84.6227 37.2193 84.1174 37.7305 83.4686 38.0964C82.8197 38.4623 82.0858 38.6453 81.2667 38.6453C80.6604 38.6453 80.102 38.5269 79.5914 38.2901C79.0915 38.0534 78.666 37.709 78.315 37.257V41.6802H76.7833V29.9926H78.2512V31.3486C78.5915 30.8751 79.0223 30.5199 79.5435 30.2832C80.0648 30.0356 80.6392 29.9119 81.2667 29.9119ZM81.1391 37.2893C81.6816 37.2893 82.1656 37.1655 82.591 36.918C83.0271 36.6597 83.3675 36.3045 83.6122 35.8525C83.8675 35.3898 83.9951 34.8624 83.9951 34.2705C83.9951 33.6786 83.8675 33.1566 83.6122 32.7046C83.3675 32.2419 83.0271 31.8867 82.591 31.6392C82.1656 31.3916 81.6816 31.2679 81.1391 31.2679C80.6072 31.2679 80.1233 31.397 79.6871 31.6553C79.2617 31.9028 78.9213 32.2526 78.666 32.7046C78.4214 33.1566 78.299 33.6786 78.299 34.2705C78.299 34.8624 78.4214 35.3898 78.666 35.8525C78.9107 36.3045 79.251 36.6597 79.6871 36.918C80.1233 37.1655 80.6072 37.2893 81.1391 37.2893Z" fill="black"/>
<path d="M92.1426 29.9119C92.9616 29.9119 93.6956 30.0948 94.3444 30.4607C94.9933 30.8266 95.4985 31.3378 95.8602 31.9943C96.2325 32.6508 96.4186 33.4095 96.4186 34.2705C96.4186 35.1315 96.2325 35.8956 95.8602 36.5628C95.4985 37.2193 94.9933 37.7305 94.3444 38.0964C93.6956 38.4623 92.9616 38.6453 92.1426 38.6453C91.5363 38.6453 90.9778 38.5269 90.4673 38.2901C89.9673 38.0534 89.5418 37.709 89.1908 37.257V41.6802H87.6591V29.9926H89.127V31.3486C89.4674 30.8751 89.8982 30.5199 90.4194 30.2832C90.9406 30.0356 91.515 29.9119 92.1426 29.9119ZM92.0149 37.2893C92.5574 37.2893 93.0414 37.1655 93.4669 36.918C93.903 36.6597 94.2434 36.3045 94.488 35.8525C94.7433 35.3898 94.871 34.8624 94.871 34.2705C94.871 33.6786 94.7433 33.1566 94.488 32.7046C94.2434 32.2419 93.903 31.8867 93.4669 31.6392C93.0414 31.3916 92.5574 31.2679 92.0149 31.2679C91.4831 31.2679 90.9991 31.397 90.563 31.6553C90.1375 31.9028 89.7971 32.2526 89.5419 32.7046C89.2972 33.1566 89.1749 33.6786 89.1749 34.2705C89.1749 34.8624 89.2972 35.3898 89.5419 35.8525C89.7865 36.3045 90.1269 36.6597 90.563 36.918C90.9991 37.1655 91.4831 37.2893 92.0149 37.2893Z" fill="black"/>
<path d="M100.96 38.6453C100.269 38.6453 99.604 38.5538 98.9658 38.3709C98.3275 38.1771 97.8276 37.935 97.4659 37.6444L98.1042 36.4175C98.4765 36.6866 98.9285 36.9018 99.4604 37.0633C99.9922 37.2247 100.529 37.3054 101.072 37.3054C102.412 37.3054 103.082 36.918 103.082 36.1431C103.082 35.8848 102.992 35.6803 102.811 35.5297C102.63 35.379 102.401 35.2714 102.125 35.2068C101.859 35.1315 101.476 35.0507 100.976 34.9647C100.295 34.857 99.7369 34.7333 99.3008 34.5934C98.8753 34.4535 98.5084 34.2167 98.1999 33.8831C97.8914 33.5494 97.7372 33.0813 97.7372 32.4786C97.7372 31.7037 98.0563 31.0849 98.6945 30.6222C99.3327 30.1486 100.189 29.9119 101.263 29.9119C101.827 29.9119 102.391 29.9818 102.955 30.1217C103.518 30.2616 103.981 30.45 104.343 30.6867L103.689 31.9136C102.997 31.4616 102.183 31.2356 101.247 31.2356C100.599 31.2356 100.104 31.3432 99.7635 31.5585C99.4231 31.7737 99.253 32.0589 99.253 32.414C99.253 32.6939 99.3487 32.9145 99.5401 33.0759C99.7316 33.2373 99.9656 33.3557 100.242 33.4311C100.529 33.5064 100.928 33.5925 101.439 33.6894C102.12 33.8077 102.667 33.9369 103.082 34.0768C103.508 34.2059 103.869 34.4319 104.167 34.7548C104.465 35.0777 104.614 35.5297 104.614 36.1108C104.614 36.8857 104.284 37.5045 103.625 37.9673C102.976 38.4193 102.088 38.6453 100.96 38.6453Z" fill="black"/>
</g>
</svg>
