<svg width="129" height="47" viewBox="0 0 129 47" fill="none" xmlns="http://www.w3.org/2000/svg">
<path opacity="0.9" d="M23.1794 0C17.0318 2.68718e-07 11.1361 2.44211 6.78909 6.78909C2.44211 11.1361 1.95409e-07 17.0318 0 23.1794C-1.95409e-07 29.327 2.44211 35.2227 6.78909 39.5697C11.1361 43.9167 17.0318 46.3588 23.1794 46.3588V0Z" fill="white"/>
<path opacity="0.75" d="M23.1799 46.3588C26.2239 46.3588 29.238 45.7593 32.0503 44.5944C34.8626 43.4295 37.4178 41.7222 39.5702 39.5698C41.7226 37.4174 43.43 34.8621 44.5949 32.0498C45.7598 29.2376 46.3593 26.2234 46.3593 23.1794L23.1799 23.1794L23.1799 46.3588Z" fill="white"/>
<path opacity="0.6" fill-rule="evenodd" clip-rule="evenodd" d="M50.825 11.4514C52.3288 7.82094 53.1028 3.92983 53.1028 0.000244141H23.1794V29.9236C23.1796 29.9236 23.1797 29.9236 23.1798 29.9236L23.1798 23.1795L42.1037 23.1795C42.8806 22.5452 43.6266 21.871 44.3384 21.1592C47.1171 18.3806 49.3212 15.0819 50.825 11.4514Z" fill="white"/>
<path d="M74.4065 14.4683H77.7056V19.5919C76.2487 21.1895 74.2314 21.9884 71.6538 21.9884C69.4964 21.9884 67.6822 21.2859 66.2113 19.8811C64.7543 18.4763 64.0259 16.7064 64.0259 14.5716C64.0259 12.423 64.7684 10.6325 66.2533 9.20013C67.7523 7.76773 69.5524 7.05153 71.6538 7.05153C73.7691 7.05153 75.6043 7.7333 77.1593 9.09683L75.4572 11.514C74.7988 10.9493 74.1894 10.5637 73.629 10.3571C73.0827 10.1367 72.4873 10.0265 71.8429 10.0265C70.5961 10.0265 69.5454 10.4466 68.6909 11.2867C67.8363 12.1131 67.409 13.2081 67.409 14.5716C67.409 15.9351 67.8153 17.0301 68.6278 17.8565C69.4543 18.6691 70.435 19.0754 71.5697 19.0754C72.7044 19.0754 73.65 18.8619 74.4065 18.4349V14.4683Z" fill="white"/>
<path d="M90.1035 20.2116C88.8287 21.3961 87.3298 21.9884 85.6067 21.9884C83.8976 21.9884 82.4827 21.4719 81.362 20.4389C80.2412 19.3922 79.6809 17.9942 79.6809 16.245C79.6809 14.4958 80.2482 13.1048 81.383 12.0718C82.5317 11.0388 83.8836 10.5223 85.4386 10.5223C86.9936 10.5223 88.3104 10.9837 89.3891 11.9065C90.4818 12.8293 91.0281 14.0964 91.0281 15.7079V17.3606H82.7909C82.8889 17.9667 83.2111 18.4625 83.7575 18.8481C84.3038 19.2338 84.9202 19.4266 85.6067 19.4266C86.7134 19.4266 87.624 19.0616 88.3384 18.3316L90.1035 20.2116ZM87.8341 15.1501C87.764 14.489 87.5119 13.9794 87.0776 13.6213C86.6433 13.2632 86.111 13.0841 85.4806 13.0841C84.8642 13.0841 84.2968 13.2701 83.7785 13.6419C83.2602 14.0138 82.959 14.5165 82.8749 15.1501H87.8341Z" fill="white"/>
<path d="M96.9393 12.9395V17.9184C96.9393 18.3454 97.0514 18.6828 97.2755 18.9308C97.4997 19.1649 97.7658 19.282 98.074 19.282C98.6624 19.282 99.1597 19.0203 99.566 18.4969L100.743 20.6662C99.7621 21.5476 98.7255 21.9884 97.6328 21.9884C96.5541 21.9884 95.6365 21.6372 94.88 20.9347C94.1375 20.2323 93.7663 19.2751 93.7663 18.0631V12.9395H92.4424V10.7083H93.7663V7.38209H96.9393V10.7083H99.6711V12.9395H96.9393Z" fill="white"/>
<path d="M112.834 7.38209V10.2124H106.026V13.332H112.498V16.1624H106.026V21.8231H102.748V7.38209H112.834Z" fill="white"/>
<path d="M118.451 21.8231H115.299V10.7083H118.451V21.8231ZM115.552 9.30343C115.201 8.94533 115.026 8.51148 115.026 8.00188C115.026 7.49227 115.201 7.06531 115.552 6.72099C115.916 6.36289 116.357 6.18384 116.875 6.18384C117.394 6.18384 117.828 6.36289 118.178 6.72099C118.543 7.06531 118.725 7.49227 118.725 8.00188C118.725 8.51148 118.543 8.94533 118.178 9.30343C117.828 9.64775 117.394 9.81991 116.875 9.81991C116.357 9.81991 115.916 9.64775 115.552 9.30343Z" fill="white"/>
<path d="M125.197 12.9395V17.9184C125.197 18.3454 125.309 18.6828 125.533 18.9308C125.757 19.1649 126.023 19.282 126.331 19.282C126.92 19.282 127.417 19.0203 127.823 18.4969L129 20.6662C128.019 21.5476 126.983 21.9884 125.89 21.9884C124.811 21.9884 123.894 21.6372 123.137 20.9347C122.395 20.2323 122.024 19.2751 122.024 18.0631V12.9395H120.7V10.7083H122.024V7.38209H125.197V10.7083H127.928V12.9395H125.197Z" fill="white"/>
<path d="M67.6472 29.0125C68.782 29.0125 69.6487 29.2943 70.247 29.858C70.8558 30.4216 71.1601 31.2619 71.1601 32.3788V37.3893H69.7518V36.2932C69.5042 36.6795 69.1483 36.9769 68.684 37.1857C68.2301 37.384 67.6884 37.4832 67.0591 37.4832C66.1409 37.4832 65.4032 37.2588 64.8461 36.8099C64.2993 36.3611 64.0259 35.7713 64.0259 35.0406C64.0259 34.3099 64.289 33.7254 64.8151 33.287C65.3413 32.8381 66.177 32.6137 67.3222 32.6137H69.6745V32.3162C69.6745 31.669 69.4887 31.1732 69.1173 30.8287C68.7459 30.4843 68.1991 30.312 67.4769 30.312C66.992 30.312 66.5174 30.3955 66.0532 30.5626C65.5889 30.7191 65.1969 30.9331 64.877 31.2045L64.258 30.0772C64.681 29.7327 65.1865 29.4717 65.7746 29.2943C66.3627 29.1064 66.9869 29.0125 67.6472 29.0125ZM67.3067 36.3245C67.8741 36.3245 68.3642 36.1993 68.7769 35.9488C69.1896 35.6878 69.4887 35.3225 69.6745 34.8527V33.6941H67.3841C66.1254 33.6941 65.4961 34.122 65.4961 34.978C65.4961 35.3955 65.656 35.7243 65.9758 35.9644C66.2956 36.2045 66.7393 36.3245 67.3067 36.3245Z" fill="white"/>
<path d="M78.2581 29.0125C79.0525 29.0125 79.7643 29.1899 80.3937 29.5448C81.023 29.8997 81.5131 30.3955 81.8639 31.0323C82.225 31.669 82.4055 32.4049 82.4055 33.24C82.4055 34.0751 82.225 34.8162 81.8639 35.4634C81.5131 36.1001 81.023 36.5959 80.3937 36.9509C79.7643 37.3058 79.0525 37.4832 78.2581 37.4832C77.67 37.4832 77.1283 37.3684 76.6331 37.1387C76.1482 36.9091 75.7355 36.5751 75.3951 36.1367V40.4268H73.9094V29.0907H75.3332V30.406C75.6633 29.9467 76.0812 29.6022 76.5867 29.3726C77.0922 29.1325 77.6494 29.0125 78.2581 29.0125ZM78.1343 36.168C78.6604 36.168 79.1298 36.0479 79.5425 35.8078C79.9655 35.5573 80.2957 35.2129 80.533 34.7744C80.7806 34.3256 80.9044 33.8141 80.9044 33.24C80.9044 32.6659 80.7806 32.1596 80.533 31.7212C80.2957 31.2724 79.9655 30.9279 79.5425 30.6878C79.1298 30.4477 78.6604 30.3277 78.1343 30.3277C77.6184 30.3277 77.149 30.453 76.726 30.7035C76.3133 30.9436 75.9832 31.2828 75.7355 31.7212C75.4983 32.1596 75.3796 32.6659 75.3796 33.24C75.3796 33.8141 75.4983 34.3256 75.7355 34.7744C75.9728 35.2129 76.303 35.5573 76.726 35.8078C77.149 36.0479 77.6184 36.168 78.1343 36.168Z" fill="white"/>
<path d="M88.8068 29.0125C89.6012 29.0125 90.3131 29.1899 90.9424 29.5448C91.5718 29.8997 92.0618 30.3955 92.4126 31.0323C92.7737 31.669 92.9543 32.4049 92.9543 33.24C92.9543 34.0751 92.7737 34.8162 92.4126 35.4634C92.0618 36.1001 91.5718 36.5959 90.9424 36.9509C90.3131 37.3058 89.6012 37.4832 88.8068 37.4832C88.2187 37.4832 87.6771 37.3684 87.1819 37.1387C86.697 36.9091 86.2843 36.5751 85.9438 36.1367V40.4268H84.4582V29.0907H85.8819V30.406C86.2121 29.9467 86.6299 29.6022 87.1355 29.3726C87.641 29.1325 88.1981 29.0125 88.8068 29.0125ZM88.683 36.168C89.2092 36.168 89.6786 36.0479 90.0913 35.8078C90.5143 35.5573 90.8444 35.2129 91.0817 34.7744C91.3293 34.3256 91.4531 33.8141 91.4531 33.24C91.4531 32.6659 91.3293 32.1596 91.0817 31.7212C90.8444 31.2724 90.5143 30.9279 90.0913 30.6878C89.6786 30.4477 89.2092 30.3277 88.683 30.3277C88.1672 30.3277 87.6977 30.453 87.2747 30.7035C86.8621 30.9436 86.5319 31.2828 86.2843 31.7212C86.047 32.1596 85.9284 32.6659 85.9284 33.24C85.9284 33.8141 86.047 34.3256 86.2843 34.7744C86.5216 35.2129 86.8517 35.5573 87.2747 35.8078C87.6977 36.0479 88.1672 36.168 88.683 36.168Z" fill="white"/>
<path d="M97.3592 37.4832C96.6886 37.4832 96.0438 37.3945 95.4248 37.217C94.8058 37.0291 94.3209 36.7943 93.9701 36.5124L94.5891 35.3225C94.9502 35.5834 95.3887 35.7922 95.9045 35.9488C96.4204 36.1053 96.9414 36.1836 97.4676 36.1836C98.7675 36.1836 99.4175 35.8078 99.4175 35.0563C99.4175 34.8058 99.3298 34.6074 99.1544 34.4613C98.979 34.3152 98.7572 34.2108 98.4889 34.1481C98.231 34.0751 97.8596 33.9968 97.3747 33.9133C96.7144 33.8089 96.1728 33.6888 95.7498 33.5531C95.3371 33.4175 94.9811 33.1878 94.682 32.8642C94.3828 32.5406 94.2332 32.0866 94.2332 31.502C94.2332 30.7504 94.5427 30.1502 95.1617 29.7014C95.7807 29.2421 96.6112 29.0125 97.6533 29.0125C98.2001 29.0125 98.7469 29.0803 99.2937 29.216C99.8405 29.3517 100.289 29.5344 100.64 29.764L100.006 30.954C99.3349 30.5156 98.5457 30.2964 97.6378 30.2964C97.0084 30.2964 96.5287 30.4008 96.1986 30.6095C95.8684 30.8183 95.7033 31.0949 95.7033 31.4394C95.7033 31.7108 95.7962 31.9248 95.9819 32.0813C96.1676 32.2379 96.3946 32.3527 96.6628 32.4258C96.9414 32.4989 97.3283 32.5824 97.8235 32.6763C98.4838 32.7912 99.0151 32.9164 99.4175 33.0521C99.8302 33.1774 100.181 33.3966 100.47 33.7097C100.759 34.0229 100.903 34.4613 100.903 35.025C100.903 35.7765 100.583 36.3767 99.9436 36.8256C99.3143 37.264 98.4528 37.4832 97.3592 37.4832Z" fill="white"/>
</svg>
