<svg width="28" height="26" viewBox="0 0 28 26" fill="none" xmlns="http://www.w3.org/2000/svg">
<mask id="mask0" mask-type="alpha" maskUnits="userSpaceOnUse" x="0" y="0" width="28" height="26">
<path d="M15.2791 0.808414L18.3833 7.0488C18.6133 7.50265 19.0157 7.7863 19.4755 7.84304L26.4312 8.86419C27.6384 9.03438 28.1558 10.5094 27.236 11.3603L22.2348 16.1825C21.8899 16.5229 21.7175 16.9767 21.8324 17.4873L23.0396 24.295C23.2696 25.4863 21.9474 26.394 20.9127 25.8267L14.7043 22.593C14.2444 22.3661 13.727 22.3661 13.3246 22.593L7.05877 25.8267C5.96656 26.394 4.70189 25.4863 4.93183 24.295L6.13901 17.4873C6.1965 17.0334 6.08153 16.5229 5.73662 16.1825L0.620448 11.3603C-0.241828 10.5094 0.218053 9.03438 1.42524 8.86419L8.38093 7.84304C8.84081 7.7863 9.30069 7.50265 9.47314 7.0488L12.5773 0.808414C13.1522 -0.269471 14.7043 -0.269471 15.2791 0.808414Z" fill="#626262"/>
</mask>
<g mask="url(#mask0)">
<path d="M15.2791 0.808414L18.3833 7.0488C18.6133 7.50265 19.0157 7.7863 19.4755 7.84304L26.4312 8.86419C27.6384 9.03438 28.1558 10.5094 27.236 11.3603L22.2348 16.1825C21.8899 16.5229 21.7175 16.9767 21.8324 17.4873L23.0396 24.295C23.2696 25.4863 21.9474 26.394 20.9127 25.8267L14.7043 22.593C14.2444 22.3661 13.727 22.3661 13.3246 22.593L7.05877 25.8267C5.96656 26.394 4.70189 25.4863 4.93183 24.295L6.13901 17.4873C6.1965 17.0334 6.08153 16.5229 5.73662 16.1825L0.620448 11.3603C-0.241828 10.5094 0.218053 9.03438 1.42524 8.86419L8.38093 7.84304C8.84081 7.7863 9.30069 7.50265 9.47314 7.0488L12.5773 0.808414C13.1522 -0.269471 14.7043 -0.269471 15.2791 0.808414Z" fill="#626262"/>
<rect x="-6" y="-1" width="20" height="30" fill="#FFC329"/>
</g>
</svg>
