<svg width="22" height="23" viewBox="0 0 22 23" fill="none" xmlns="http://www.w3.org/2000/svg">
<path d="M10.9961 2.88781C13.9338 2.88781 14.2787 2.90091 15.4398 2.95331C16.5136 3.00134 17.0941 3.18038 17.4826 3.33322C17.9977 3.53409 18.3644 3.7699 18.7485 4.15418C19.1326 4.53846 19.3727 4.90527 19.5691 5.42056C19.7176 5.8092 19.9009 6.38999 19.9489 7.46423C20.0013 8.6258 20.0144 8.97078 20.0144 11.9096C20.0144 14.8485 20.0013 15.1935 19.9489 16.3551C19.9009 17.4293 19.7219 18.0101 19.5691 18.3987C19.3683 18.914 19.1326 19.2808 18.7485 19.6651C18.3644 20.0494 17.9977 20.2896 17.4826 20.4861C17.0941 20.6345 16.5136 20.8179 15.4398 20.866C14.2787 20.9184 13.9338 20.9315 10.9961 20.9315C8.05842 20.9315 7.71358 20.9184 6.55247 20.866C5.47866 20.8179 4.89811 20.6389 4.50962 20.4861C3.99454 20.2852 3.62787 20.0494 3.24374 19.6651C2.85962 19.2808 2.61954 18.914 2.42311 18.3987C2.27469 18.0101 2.09136 17.4293 2.04335 16.3551C1.99096 15.1935 1.97787 14.8485 1.97787 11.9096C1.97787 8.97078 1.99096 8.6258 2.04335 7.46423C2.09136 6.38999 2.27033 5.8092 2.42311 5.42056C2.6239 4.90527 2.85962 4.53846 3.24374 4.15418C3.62787 3.7699 3.99454 3.52973 4.50962 3.33322C4.89811 3.18475 5.47866 3.00134 6.55247 2.95331C7.71358 2.89654 8.06279 2.88781 10.9961 2.88781ZM10.9961 0.905273C8.01041 0.905273 7.63501 0.918374 6.46081 0.970776C5.29096 1.02318 4.49216 1.21095 3.79374 1.48169C3.06914 1.76117 2.45803 2.14108 1.84692 2.75243C1.23581 3.36379 0.860409 3.97951 0.576679 4.70003C0.306044 5.39872 0.118345 6.19785 0.0659645 7.37252C0.0135835 8.54283 0.000488281 8.91837 0.000488281 11.9053C0.000488281 14.8922 0.0135835 15.2677 0.0659645 16.4424C0.118345 17.6127 0.306044 18.4118 0.576679 19.1149C0.856044 19.8398 1.23581 20.4511 1.84692 21.0625C2.45803 21.6738 3.0735 22.0494 3.79374 22.3332C4.49216 22.604 5.29097 22.7917 6.46517 22.8441C7.63938 22.8965 8.01041 22.9096 11.0005 22.9096C13.9906 22.9096 14.3616 22.8965 15.5358 22.8441C16.7056 22.7917 17.5045 22.604 18.2072 22.3332C18.9318 22.0537 19.5429 21.6738 20.1541 21.0625C20.7652 20.4511 21.1406 19.8354 21.4243 19.1149C21.6949 18.4162 21.8826 17.6171 21.935 16.4424C21.9874 15.2677 22.0005 14.8965 22.0005 11.9053C22.0005 8.91401 21.9874 8.54283 21.935 7.36816C21.8826 6.19785 21.6949 5.39872 21.4243 4.69567C21.1449 3.97078 20.7652 3.35942 20.1541 2.74807C19.5429 2.13671 18.9275 1.76117 18.2072 1.47733C17.5088 1.20658 16.71 1.01881 15.5358 0.966409C14.3572 0.918374 13.9818 0.905273 10.9961 0.905273Z" fill="black"/>
<path d="M10.9961 6.25879C7.8794 6.25879 5.34766 8.78717 5.34766 11.9094C5.34766 15.0317 7.87503 17.5601 10.9961 17.5601C14.1171 17.5601 16.6445 15.0317 16.6445 11.9094C16.6445 8.78717 14.1171 6.25879 10.9961 6.25879ZM10.9961 15.5732C8.97067 15.5732 7.3294 13.9313 7.3294 11.9051C7.3294 9.87888 8.97067 8.23695 10.9961 8.23695C13.0215 8.23695 14.6627 9.87888 14.6627 11.9051C14.6627 13.9313 13.0215 15.5732 10.9961 15.5732Z" fill="black"/>
<path d="M16.8671 7.35045C17.5951 7.35045 18.1853 6.76001 18.1853 6.03167C18.1853 5.30333 17.5951 4.71289 16.8671 4.71289C16.139 4.71289 15.5488 5.30333 15.5488 6.03167C15.5488 6.76001 16.139 7.35045 16.8671 7.35045Z" fill="black"/>
</svg>
