<?xml version="1.0" encoding="utf-8"?>
<!-- Generator: Adobe Illustrator 17.1.0, SVG Export Plug-In . SVG Version: 6.00 Build 0)  -->
<!DOCTYPE svg PUBLIC "-//W3C//DTD SVG 1.1//EN" "http://www.w3.org/Graphics/SVG/1.1/DTD/svg11.dtd">
<svg version="1.1" id="Layer_1" xmlns="http://www.w3.org/2000/svg" xmlns:xlink="http://www.w3.org/1999/xlink" x="0px" y="0px"
	 viewBox="0 0 19 21" enable-background="new 0 0 19 21" xml:space="preserve">
<g>
	<path fill="#202020" d="M14.8,12.9L18,11c0.6-0.4,0.6-1.3,0-1.7l-3.2-1.9l-2.7,2.7L14.8,12.9z"/>
	<path fill="#202020" d="M13.6,13.6l-2.4-2.4L2,20.3c0.1,0,0.3-0.1,0.4-0.1L13.6,13.6z"/>
	<path fill="#202020" d="M11.1,9.2l2.4-2.4L2.3,0.1C2.2,0.1,2.1,0,2,0L11.1,9.2z"/>
	<path fill="#202020" d="M0.9,0.9l9.2,9.2l-9.2,9.2c0,0,0,0,0,0L0.9,0.9C0.9,0.9,0.9,0.9,0.9,0.9z"/>
</g>
</svg>
