<svg width="28" height="26" viewBox="0 0 28 26" fill="none" xmlns="http://www.w3.org/2000/svg">
<path d="M15.1029 0.808414L18.2071 7.0488C18.437 7.50265 18.8394 7.7863 19.2993 7.84304L26.255 8.86419C27.4621 9.03438 27.9795 10.5094 27.0597 11.3603L22.0586 16.1825C21.7136 16.5229 21.5412 16.9767 21.6562 17.4873L22.8633 24.295C23.0933 25.4863 21.7711 26.394 20.7364 25.8267L14.528 22.593C14.0681 22.3661 13.5508 22.3661 13.1484 22.593L6.8825 25.8267C5.79029 26.394 4.52562 25.4863 4.75556 24.295L5.96274 17.4873C6.02023 17.0334 5.90526 16.5229 5.56035 16.1825L0.444178 11.3603C-0.418097 10.5094 0.0417831 9.03438 1.24897 8.86419L8.20466 7.84304C8.66454 7.7863 9.12442 7.50265 9.29687 7.0488L12.4011 0.808414C12.9759 -0.269471 14.528 -0.269471 15.1029 0.808414Z" fill="#FFC329"/>
</svg>
